<svg width="335" height="93" viewBox="0 0 335 93" fill="none" xmlns="http://www.w3.org/2000/svg">
<path d="M134.71 45.667C136.03 44.227 137.38 42.727 138.76 41.167C140.2 39.607 141.58 38.077 142.9 36.577C144.22 35.017 145.45 33.547 146.59 32.167C147.79 30.787 148.81 29.587 149.65 28.567H165.58C162.4 32.227 159.28 35.737 156.22 39.097C153.22 42.397 149.92 45.817 146.32 49.357C148.12 50.977 149.98 52.927 151.9 55.207C153.82 57.427 155.68 59.737 157.48 62.137C159.28 64.537 160.93 66.937 162.43 69.337C163.93 71.737 165.19 73.927 166.21 75.907H150.82C149.86 74.347 148.75 72.637 147.49 70.777C146.29 68.857 145 66.967 143.62 65.107C142.24 63.187 140.77 61.357 139.21 59.617C137.71 57.877 136.21 56.407 134.71 55.207V75.907H121.3V8.22696L134.71 6.06696V45.667Z" fill="white"/>
<path d="M209.35 74.287C207.07 74.947 204.13 75.547 200.53 76.087C196.93 76.687 193.15 76.987 189.19 76.987C185.17 76.987 181.81 76.447 179.11 75.367C176.47 74.287 174.37 72.787 172.81 70.867C171.25 68.887 170.14 66.547 169.48 63.847C168.82 61.147 168.49 58.177 168.49 54.937V28.567H181.9V53.317C181.9 57.637 182.47 60.757 183.61 62.677C184.75 64.597 186.88 65.557 190 65.557C190.96 65.557 191.98 65.527 193.06 65.467C194.14 65.347 195.1 65.227 195.94 65.107V28.567H209.35V74.287Z" fill="white"/>
<path d="M217.888 16.777L231.298 14.617V28.567H247.408V39.727H231.298V56.377C231.298 59.197 231.778 61.447 232.738 63.127C233.758 64.807 235.768 65.647 238.768 65.647C240.208 65.647 241.678 65.527 243.178 65.287C244.738 64.987 246.148 64.597 247.408 64.117L249.298 74.557C247.678 75.217 245.878 75.787 243.898 76.267C241.918 76.747 239.488 76.987 236.608 76.987C232.948 76.987 229.918 76.507 227.518 75.547C225.118 74.527 223.198 73.147 221.758 71.407C220.318 69.607 219.298 67.447 218.698 64.927C218.158 62.407 217.888 59.617 217.888 56.557V16.777Z" fill="white"/>
<path d="M254.279 16.777L267.689 14.617V28.567H283.799V39.727H267.689V56.377C267.689 59.197 268.169 61.447 269.129 63.127C270.149 64.807 272.159 65.647 275.159 65.647C276.599 65.647 278.069 65.527 279.569 65.287C281.129 64.987 282.539 64.597 283.799 64.117L285.689 74.557C284.069 75.217 282.269 75.787 280.289 76.267C278.309 76.747 275.879 76.987 272.999 76.987C269.339 76.987 266.309 76.507 263.909 75.547C261.509 74.527 259.589 73.147 258.149 71.407C256.709 69.607 255.689 67.447 255.089 64.927C254.549 62.407 254.279 59.617 254.279 56.557V16.777Z" fill="white"/>
<path d="M334.028 28.567C331.328 37.687 328.508 46.237 325.568 54.217C322.628 62.197 319.418 69.937 315.938 77.437C314.678 80.137 313.418 82.417 312.158 84.277C310.898 86.197 309.518 87.757 308.018 88.957C306.518 90.217 304.808 91.117 302.888 91.657C301.028 92.257 298.838 92.557 296.318 92.557C294.218 92.557 292.268 92.347 290.468 91.927C288.728 91.567 287.288 91.147 286.148 90.667L288.488 79.957C289.868 80.437 291.098 80.767 292.178 80.947C293.258 81.127 294.398 81.217 295.598 81.217C297.998 81.217 299.828 80.557 301.088 79.237C302.408 77.977 303.518 76.207 304.418 73.927C301.358 67.927 298.298 61.207 295.238 53.767C292.178 46.267 289.298 37.867 286.598 28.567H300.818C301.418 30.907 302.108 33.457 302.888 36.217C303.728 38.917 304.598 41.677 305.498 44.497C306.398 47.257 307.298 49.957 308.198 52.597C309.158 55.237 310.058 57.637 310.898 59.797C311.678 57.637 312.488 55.237 313.328 52.597C314.168 49.957 314.978 47.257 315.758 44.497C316.598 41.677 317.378 38.917 318.098 36.217C318.878 33.457 319.568 30.907 320.168 28.567H334.028Z" fill="white"/>
<path d="M5.61822 0.318381C24.3953 -3.04744 43.4551 21.0765 51.2099 34.7827V64.4733C46.3752 78.7229 38.258 83.6134 30.3626 83.8353C17.628 84.1933 7.60467 69.5652 12.6746 57.8778C15.6005 51.1328 21.5796 47.7124 25.6761 46.659C5.6147 45.8231 0.322905 23.1698 0.0145802 7.89582C-0.0575896 4.32064 2.09841 0.949313 5.61822 0.318381Z" fill="#C391FA"/>
<path d="M96.8017 0.318381C78.0247 -3.04744 58.9648 21.0765 51.21 34.7827V64.4733C56.0447 78.7229 64.1619 83.6134 72.0573 83.8353C84.792 84.1933 94.8153 69.5652 89.7454 57.8778C86.8194 51.1328 80.8404 47.7124 76.7438 46.659C96.8053 45.8231 102.097 23.1698 102.405 7.89582C102.478 4.32064 100.322 0.949313 96.8017 0.318381Z" fill="#9E58E9"/>
</svg>
